<svg width="23" height="24" viewBox="0 0 23 24" fill="none" xmlns="http://www.w3.org/2000/svg">
<path d="M14.1456 19.0456C13.1162 20.772 11.3059 21.0548 9.32187 19.8717L5.35381 17.5054L8.68802 11.9141L12.553 14.2188C14.5113 15.3866 15.2058 17.2677 14.1456 19.0456ZM18.3374 10.9618C17.354 12.6109 15.6568 12.8213 13.7501 11.6843L10.117 9.51779L13.1746 4.39024L16.8077 6.5567C18.7144 7.69371 19.3054 9.3385 18.3374 10.9618ZM16.8986 21.1064C18.1739 18.9678 17.7649 16.1392 16.058 14.6672C18.1531 15.0783 20.2508 14.5478 21.5414 12.3834C23.0472 9.85827 22.282 6.57271 18.4943 4.31406L11.6661 0.24234L0.987479 18.1501L8.15059 22.4216C11.8095 24.6034 15.2699 23.8377 16.8986 21.1064Z" fill="black"/>
</svg>
