<svg width="772" height="772" viewBox="0 0 772 772" fill="none" xmlns="http://www.w3.org/2000/svg">
<path d="M176.7 236.72L179.871 238.984L179.108 240.053L171.008 234.269L173.141 231.282C173.773 230.395 174.495 229.863 175.305 229.686C176.117 229.504 176.897 229.68 177.642 230.212C178.428 230.773 178.859 231.453 178.933 232.251C179.006 233.042 178.716 233.896 178.062 234.812L176.7 236.72ZM175.826 236.097L177.196 234.177C177.604 233.606 177.783 233.073 177.733 232.578C177.68 232.081 177.399 231.651 176.891 231.288C176.408 230.944 175.914 230.82 175.408 230.918C174.901 231.016 174.453 231.326 174.063 231.848L172.649 233.829L175.826 236.097Z" fill="black"/>
<path d="M192.785 215.627L191.254 217.394L194.298 220.03L193.434 221.027L185.911 214.511L188.068 212.02C188.802 211.173 189.559 210.689 190.338 210.568C191.121 210.445 191.881 210.702 192.618 211.34C193.087 211.746 193.384 212.227 193.512 212.783C193.642 213.336 193.597 213.913 193.379 214.513L198.103 215.512L198.165 215.566L197.243 216.63L192.785 215.627ZM190.443 216.691L191.763 215.167C192.19 214.674 192.401 214.173 192.397 213.663C192.396 213.149 192.182 212.708 191.754 212.338C191.289 211.935 190.812 211.765 190.322 211.83C189.836 211.89 189.364 212.181 188.907 212.702L187.591 214.221L190.443 216.691Z" fill="black"/>
<path d="M209.479 197.609L206.362 200.591L208.801 203.14L212.422 199.676L213.163 200.451L208.594 204.822L201.714 197.63L206.234 193.307L206.98 194.087L203.409 197.503L205.621 199.815L208.737 196.834L209.479 197.609Z" fill="black"/>
<path d="M225.755 183.827C224.671 184.272 223.782 184.47 223.087 184.422C222.392 184.367 221.83 184.068 221.4 183.524C220.914 182.91 220.757 182.208 220.93 181.421C221.104 180.627 221.584 179.919 222.37 179.296C222.906 178.872 223.465 178.598 224.047 178.475C224.633 178.348 225.184 178.377 225.701 178.56C226.222 178.741 226.654 179.048 226.996 179.48L225.961 180.299C225.588 179.827 225.145 179.576 224.633 179.545C224.118 179.511 223.587 179.711 223.04 180.143C222.533 180.545 222.225 180.971 222.117 181.423C222.01 181.868 222.114 182.289 222.428 182.685C222.679 183.003 223.027 183.167 223.47 183.177C223.914 183.18 224.532 183.016 225.323 182.687C226.118 182.354 226.785 182.155 227.325 182.088C227.865 182.014 228.339 182.055 228.746 182.21C229.157 182.361 229.519 182.635 229.833 183.032C230.333 183.665 230.488 184.367 230.298 185.14C230.104 185.909 229.595 186.62 228.769 187.273C228.233 187.698 227.652 187.992 227.027 188.156C226.398 188.316 225.816 188.318 225.279 188.161C224.746 188.002 224.3 187.695 223.941 187.241L224.975 186.423C225.349 186.894 225.818 187.131 226.382 187.131C226.947 187.126 227.521 186.893 228.103 186.432C228.647 186.002 228.975 185.562 229.089 185.111C229.204 184.66 229.109 184.244 228.807 183.861C228.504 183.479 228.137 183.29 227.705 183.295C227.27 183.296 226.62 183.474 225.755 183.827Z" fill="black"/>
<path d="M247.718 168.019L244.099 170.367L246.019 173.326L250.223 170.598L250.807 171.498L245.503 174.94L240.084 166.592L245.331 163.186L245.919 164.092L241.773 166.783L243.515 169.467L247.133 167.118L247.718 168.019Z" fill="black"/>
<path d="M271.774 159.645L270.605 160.256L262.61 155.782L266.165 162.578L264.996 163.19L260.383 154.37L261.552 153.759L269.575 158.257L266.004 151.43L267.161 150.825L271.774 159.645Z" fill="black"/>
<path d="M290.16 141.724L287.199 142.935L290.557 151.148L289.348 151.642L285.99 143.429L283.035 144.637L282.627 143.637L289.751 140.724L290.16 141.724Z" fill="black"/>
<path d="M313.696 138.226L309.568 139.478L310.591 142.853L315.386 141.4L315.697 142.427L309.646 144.261L306.759 134.736L312.745 132.922L313.058 133.955L308.328 135.389L309.256 138.451L313.384 137.199L313.696 138.226Z" fill="black"/>
<path d="M332.023 138.306L330.041 128.552L332.794 127.992C333.642 127.82 334.431 127.855 335.159 128.097C335.887 128.34 336.498 128.772 336.992 129.392C337.49 130.012 337.832 130.77 338.019 131.667L338.146 132.29C338.333 133.21 338.318 134.052 338.102 134.817C337.89 135.581 337.491 136.215 336.905 136.72C336.324 137.224 335.597 137.57 334.723 137.757L332.023 138.306ZM331.542 129.349L333.096 136.992L334.449 136.717C335.44 136.516 336.148 136.051 336.572 135.323C337.001 134.594 337.099 133.66 336.868 132.522L336.752 131.952C336.527 130.845 336.091 130.038 335.444 129.532C334.801 129.021 334 128.859 333.043 129.044L331.542 129.349Z" fill="black"/>
<path d="M381.325 132.577L381.196 122.625L384.45 122.582C385.53 122.568 386.344 122.781 386.892 123.221C387.444 123.66 387.726 124.317 387.738 125.192C387.744 125.657 387.617 126.071 387.357 126.434C387.098 126.793 386.741 127.074 386.288 127.276C386.828 127.419 387.255 127.701 387.571 128.12C387.89 128.535 388.054 129.035 388.062 129.618C388.073 130.511 387.793 131.217 387.221 131.735C386.649 132.252 385.834 132.518 384.777 132.532L381.325 132.577ZM382.577 127.905L382.624 131.487L384.79 131.458C385.401 131.451 385.88 131.287 386.227 130.968C386.578 130.644 386.75 130.205 386.743 129.649C386.727 128.45 386.068 127.86 384.764 127.876L382.577 127.905ZM382.563 126.852L384.546 126.827C385.12 126.819 385.576 126.67 385.914 126.378C386.257 126.086 386.425 125.695 386.418 125.202C386.411 124.656 386.247 124.261 385.924 124.019C385.602 123.773 385.115 123.654 384.464 123.662L382.522 123.687L382.563 126.852Z" fill="black"/>
<path d="M408.667 128.58L411.659 123.809L413.144 123.929L409.22 129.873L408.921 133.573L407.613 133.467L407.912 129.767L404.995 123.269L406.494 123.391L408.667 128.58Z" fill="black"/>
<path d="M453.583 139.93L458.502 132.768L459.886 133.149L453.688 141.767L452.568 141.459L451.654 130.885L453.031 131.264L453.583 139.93Z" fill="black"/>
<path d="M478.137 149.896L476.91 149.431L480.436 140.123L481.663 140.588L478.137 149.896Z" fill="black"/>
<path d="M498.295 156.867L504.463 150.748L505.752 151.38L498.056 158.691L497.012 158.18L498.086 147.621L499.369 148.25L498.295 156.867Z" fill="black"/>
<path d="M521.496 168.763L517.941 166.585L515.785 168.311L514.631 167.603L523.072 161.102L524.051 161.702L522.098 172.178L520.95 171.475L521.496 168.763ZM518.843 165.871L521.728 167.639L522.715 162.784L518.843 165.871Z" fill="black"/>
<path d="M559.641 197.857L556.554 195.054L554.114 196.348L553.112 195.438L562.617 190.624L563.467 191.396L559.595 201.325L558.598 200.419L559.641 197.857ZM557.574 194.521L560.079 196.796L561.953 192.21L557.574 194.521Z" fill="black"/>
<path d="M578.153 215.929C577.293 216.548 576.429 216.808 575.563 216.711C574.702 216.613 573.907 216.164 573.176 215.363C572.383 214.495 572.058 213.514 572.202 212.42C572.348 211.33 572.943 210.309 573.987 209.356L574.694 208.711C575.377 208.088 576.089 207.66 576.828 207.43C577.571 207.202 578.284 207.187 578.969 207.382C579.657 207.575 580.27 207.966 580.808 208.555C581.52 209.336 581.873 210.162 581.865 211.032C581.861 211.9 581.509 212.724 580.809 213.505L579.92 212.531C580.428 211.912 580.685 211.341 580.69 210.819C580.697 210.3 580.471 209.788 580.01 209.283C579.444 208.664 578.772 208.386 577.991 208.451C577.214 208.518 576.403 208.938 575.558 209.709L574.846 210.359C574.048 211.087 573.566 211.832 573.399 212.596C573.232 213.359 573.422 214.04 573.968 214.64C574.46 215.178 574.957 215.48 575.461 215.545C575.971 215.61 576.572 215.413 577.264 214.955L578.153 215.929Z" fill="black"/>
<path d="M589.915 235.512L589.125 234.464L597.073 228.472L597.863 229.52L589.915 235.512Z" fill="black"/>
<path d="M599.962 250.155L608.436 244.934L609.91 247.326C610.364 248.063 610.603 248.815 610.626 249.582C610.649 250.35 610.454 251.072 610.042 251.749C609.632 252.43 609.038 253.012 608.261 253.497L607.719 253.83C606.92 254.323 606.124 254.599 605.331 254.659C604.541 254.723 603.808 254.567 603.132 254.192C602.459 253.82 601.884 253.256 601.408 252.5L599.962 250.155ZM608.205 246.618L601.565 250.709L602.289 251.885C602.82 252.746 603.5 253.25 604.329 253.398C605.161 253.549 606.072 253.32 607.061 252.71L607.556 252.405C608.518 251.812 609.125 251.125 609.377 250.344C609.635 249.564 609.512 248.756 609.008 247.921L608.205 246.618Z" fill="black"/>
<path d="M627.893 294.257C628.263 294.116 628.612 294.116 628.94 294.26C629.269 294.407 629.509 294.677 629.658 295.068C629.806 295.456 629.809 295.815 629.668 296.147C629.531 296.478 629.264 296.719 628.868 296.87L628.632 296.96C628.261 297.102 627.914 297.1 627.591 296.955C627.267 296.81 627.029 296.538 626.876 296.138C626.725 295.742 626.721 295.38 626.864 295.052C627.013 294.727 627.275 294.493 627.65 294.35L627.893 294.257Z" fill="black"/>
<path d="M639.876 343.087L639.465 340.785L635.501 341.495L635.269 340.196L645.066 338.443L645.647 341.686C645.844 342.789 645.745 343.682 645.348 344.364C644.953 345.051 644.275 345.48 643.315 345.652C642.705 345.761 642.143 345.69 641.631 345.439C641.119 345.193 640.699 344.796 640.369 344.249L636.622 347.294L636.542 347.309L636.294 345.922L639.876 343.087ZM640.521 340.596L640.876 342.581C640.991 343.223 641.248 343.702 641.648 344.02C642.048 344.342 642.526 344.453 643.082 344.353C643.688 344.245 644.12 343.98 644.378 343.559C644.636 343.142 644.707 342.593 644.589 341.91L644.235 339.932L640.521 340.596Z" fill="black"/>
<path d="M643.392 367.397L643.033 363.098L639.518 363.392L639.935 368.385L638.865 368.475L638.339 362.173L648.258 361.345L648.778 367.578L647.702 367.668L647.291 362.743L644.102 363.009L644.461 367.307L643.392 367.397Z" fill="black"/>
<path d="M639.4 392.554L639.414 391.235L647.136 386.305L639.466 386.225L639.48 384.905L649.432 385.009L649.419 386.329L641.663 391.272L649.366 391.353L649.353 392.658L639.4 392.554Z" fill="black"/>
<path d="M642.362 415.736L642.81 411.446L639.302 411.079L638.781 416.063L637.713 415.951L638.371 409.662L648.27 410.698L647.62 416.919L646.545 416.806L647.06 411.891L643.878 411.558L643.429 415.848L642.362 415.736Z" fill="black"/>
<path d="M634.667 441.77C634.26 441.344 633.997 440.81 633.88 440.168C633.766 439.532 633.787 438.821 633.945 438.034C634.105 437.239 634.432 436.57 634.926 436.028C635.426 435.486 636.053 435.115 636.809 434.914C637.565 434.716 638.397 434.704 639.306 434.878L640.157 435.048C641.627 435.343 642.698 435.914 643.369 436.76C644.04 437.61 644.251 438.656 644.002 439.898C643.797 440.917 643.371 441.685 642.724 442.201C642.081 442.718 641.267 442.95 640.283 442.896L640.542 441.61C641.881 441.627 642.681 440.988 642.941 439.693C643.114 438.83 642.942 438.115 642.424 437.546C641.909 436.983 641.078 436.583 639.931 436.349L639.133 436.189C638.039 435.969 637.117 436.044 636.369 436.415C635.625 436.786 635.167 437.399 634.996 438.252C634.899 438.735 634.868 439.168 634.903 439.551C634.937 439.934 635.058 440.27 635.266 440.558L637.457 440.998L637.91 438.739L638.956 438.949L638.246 442.488L634.667 441.77Z" fill="black"/>
<path d="M630.624 461.772L631.824 457.778L629.605 456.134L629.995 454.838L638.434 461.341L638.103 462.441L627.476 463.224L627.863 461.935L630.624 461.772ZM632.744 458.469L631.771 461.709L636.717 461.425L632.744 458.469Z" fill="black"/>
<path d="M622.132 478.261L631.355 482.004L630.298 484.607C629.973 485.41 629.507 486.047 628.902 486.52C628.297 486.992 627.6 487.262 626.81 487.33C626.018 487.402 625.197 487.268 624.347 486.928L623.758 486.689C622.888 486.336 622.194 485.858 621.677 485.254C621.158 484.655 620.85 483.972 620.753 483.204C620.654 482.441 620.769 481.644 621.096 480.813L622.132 478.261ZM629.86 482.814L622.633 479.88L622.114 481.16C621.733 482.097 621.729 482.944 622.101 483.7C622.471 484.46 623.195 485.059 624.272 485.496L624.81 485.714C625.857 486.139 626.77 486.222 627.549 485.963C628.331 485.71 628.909 485.133 629.285 484.233L629.86 482.814Z" fill="black"/>
<path d="M613.667 507.636L615.656 503.809L612.527 502.182L610.216 506.628L609.263 506.133L612.18 500.522L621.011 505.113L618.126 510.663L617.168 510.165L619.447 505.779L616.609 504.304L614.619 508.131L613.667 507.636Z" fill="black"/>
<path d="M587.255 540.224L595.075 546.38L593.337 548.588C592.802 549.268 592.178 549.752 591.465 550.038C590.753 550.324 590.008 550.39 589.23 550.236C588.45 550.085 587.698 549.728 586.976 549.165L586.476 548.772C585.738 548.191 585.205 547.539 584.875 546.816C584.543 546.096 584.437 545.354 584.557 544.59C584.674 543.83 585.005 543.096 585.551 542.388L587.255 540.224ZM593.415 546.744L587.286 541.919L586.432 543.004C585.806 543.799 585.567 544.611 585.714 545.441C585.859 546.274 586.388 547.05 587.301 547.768L587.758 548.128C588.646 548.827 589.5 549.16 590.32 549.127C591.141 549.101 591.857 548.707 592.468 547.947L593.415 546.744Z" fill="black"/>
<path d="M574.442 570.206L573.532 571.162L568.427 566.303C567.737 565.647 567.395 564.925 567.402 564.138C567.405 563.355 567.735 562.618 568.391 561.928C569.073 561.212 569.787 560.828 570.534 560.778C571.28 560.727 571.984 561.016 572.644 561.644L571.739 562.595C571.327 562.202 570.898 562.008 570.453 562.013C570.005 562.021 569.577 562.239 569.169 562.668C568.795 563.061 568.617 563.496 568.635 563.972C568.65 564.452 568.879 564.906 569.322 565.333L574.442 570.206Z" fill="black"/>
<path d="M534.157 597.444L537.661 594.929L535.605 592.063L531.534 594.985L530.908 594.113L536.045 590.426L541.849 598.512L536.767 602.159L536.138 601.282L540.153 598.4L538.287 595.801L534.783 598.316L534.157 597.444Z" fill="black"/>
<path d="M516.782 603.278L521.803 611.871L519.377 613.289C518.63 613.726 517.872 613.947 517.105 613.952C516.337 613.957 515.62 613.745 514.952 613.317C514.281 612.891 513.713 612.284 513.247 611.495L512.926 610.946C512.452 610.136 512.195 609.333 512.153 608.54C512.108 607.748 512.281 607.019 512.672 606.352C513.06 605.687 513.637 605.126 514.404 604.667L516.782 603.278ZM520.125 611.601L516.19 604.866L514.998 605.563C514.125 606.073 513.604 606.741 513.438 607.567C513.267 608.395 513.475 609.311 514.061 610.315L514.354 610.816C514.924 611.792 515.597 612.415 516.372 612.685C517.146 612.961 517.956 612.858 518.803 612.373L520.125 611.601Z" fill="black"/>
<path d="M490.412 617.115L491.602 616.562L495.797 625.588L494.607 626.141L490.412 617.115Z" fill="black"/>
<path d="M470.086 634.675L473.101 633.604L470.131 625.243L471.362 624.806L474.331 633.167L477.339 632.099L477.701 633.117L470.447 635.693L470.086 634.675Z" fill="black"/>
<path d="M449.156 636.203C450.326 636.241 451.219 636.425 451.833 636.754C452.444 637.088 452.834 637.591 453.004 638.263C453.196 639.023 453.052 639.727 452.572 640.374C452.088 641.028 451.36 641.477 450.388 641.723C449.725 641.89 449.103 641.911 448.521 641.785C447.935 641.661 447.444 641.409 447.047 641.03C446.646 640.652 446.378 640.195 446.243 639.661L447.522 639.337C447.669 639.921 447.971 640.331 448.425 640.569C448.881 640.811 449.447 640.846 450.123 640.676C450.751 640.517 451.206 640.254 451.489 639.886C451.769 639.524 451.847 639.098 451.723 638.607C451.624 638.214 451.374 637.923 450.973 637.732C450.569 637.548 449.939 637.444 449.083 637.42C448.221 637.398 447.531 637.307 447.011 637.147C446.488 636.992 446.072 636.761 445.764 636.454C445.452 636.147 445.234 635.749 445.11 635.258C444.912 634.476 445.059 633.772 445.549 633.145C446.04 632.522 446.796 632.082 447.817 631.824C448.48 631.657 449.13 631.627 449.768 631.733C450.407 631.845 450.94 632.081 451.365 632.444C451.786 632.808 452.067 633.27 452.209 633.831L450.93 634.155C450.782 633.571 450.451 633.164 449.937 632.932C449.419 632.705 448.8 632.683 448.08 632.865C447.408 633.035 446.928 633.302 446.639 633.666C446.351 634.03 446.266 634.449 446.386 634.922C446.505 635.394 446.763 635.717 447.159 635.89C447.556 636.067 448.222 636.171 449.156 636.203Z" fill="black"/>
<path d="M400.886 644.485C400.909 644.881 400.804 645.213 400.569 645.483C400.329 645.753 400 645.901 399.582 645.926C399.168 645.951 398.824 645.846 398.549 645.611C398.275 645.381 398.126 645.054 398.1 644.631L398.085 644.379C398.061 643.983 398.167 643.652 398.402 643.387C398.638 643.122 398.969 642.977 399.397 642.951C399.82 642.926 400.166 643.03 400.436 643.265C400.701 643.505 400.846 643.825 400.87 644.225L400.886 644.485Z" fill="black"/>
<path d="M353.147 641.445L353.643 637.58L354.945 637.748L353.678 647.62L350.037 647.152C348.957 647.014 348.147 646.629 347.607 646C347.063 645.369 346.85 644.6 346.966 643.691C347.089 642.733 347.485 642.032 348.153 641.59C348.815 641.151 349.705 641.003 350.822 641.147L353.147 641.445ZM353.011 642.51L350.671 642.209C349.975 642.12 349.421 642.214 349.009 642.492C348.596 642.775 348.349 643.225 348.27 643.845C348.194 644.432 348.319 644.926 348.645 645.326C348.97 645.726 349.455 645.975 350.1 646.071L352.514 646.381L353.011 642.51Z" fill="black"/>
<path d="M323.411 636.69C323.625 635.738 323.972 634.943 324.452 634.304C324.932 633.669 325.507 633.231 326.178 632.989C326.849 632.748 327.575 632.716 328.358 632.892C329.123 633.064 329.758 633.403 330.266 633.91C330.772 634.421 331.111 635.06 331.284 635.828C331.452 636.599 331.437 637.444 331.239 638.361L331.082 639.062C330.872 639.995 330.524 640.783 330.038 641.426C329.552 642.069 328.971 642.513 328.295 642.757C327.613 643.006 326.89 643.044 326.125 642.872C325.347 642.696 324.705 642.353 324.198 641.842C323.687 641.335 323.351 640.687 323.193 639.899C323.033 639.116 323.059 638.25 323.272 637.303L323.411 636.69ZM324.543 637.603C324.284 638.755 324.316 639.69 324.641 640.407C324.964 641.129 325.541 641.584 326.373 641.771C327.182 641.953 327.889 641.788 328.495 641.275C329.096 640.766 329.526 639.966 329.786 638.875L329.946 638.161C330.197 637.045 330.162 636.115 329.839 635.369C329.511 634.627 328.936 634.164 328.113 633.979C327.286 633.793 326.578 633.949 325.99 634.447C325.4 634.949 324.972 635.761 324.705 636.883L324.543 637.603Z" fill="black"/>
<path d="M307.26 630.437L307.485 629.13L306.852 630.167L302.826 636.16L301.774 635.816L302.101 628.618L302.214 627.389L301.597 628.597L298.017 634.591L296.763 634.182L302.143 625.468L303.28 625.839L302.981 633.37L302.895 634.14L303.28 633.468L307.55 627.231L308.687 627.602L307.889 637.811L306.641 637.404L307.26 630.437Z" fill="black"/>
<path d="M280.663 621.833L284.621 623.548L286.024 620.312L281.426 618.319L281.853 617.335L287.655 619.849L283.696 628.981L277.957 626.494L278.387 625.503L282.922 627.468L284.194 624.533L280.236 622.818L280.663 621.833Z" fill="black"/>
<path d="M259.667 610.626L261.715 611.753L263.655 608.225L264.812 608.86L260.015 617.582L257.128 615.994C256.146 615.454 255.514 614.815 255.233 614.078C254.948 613.339 255.04 612.542 255.51 611.687C255.809 611.144 256.217 610.752 256.734 610.511C257.247 610.268 257.821 610.191 258.453 610.279L258.441 605.45L258.48 605.378L259.714 606.057L259.667 610.626ZM261.198 612.693L259.431 611.721C258.86 611.407 258.326 611.306 257.828 611.417C257.326 611.526 256.939 611.828 256.666 612.323C256.37 612.862 256.304 613.364 256.47 613.83C256.631 614.293 257.014 614.693 257.619 615.031L259.38 615.999L261.198 612.693Z" fill="black"/>
<path d="M215.817 585.97L218.283 588.007L223.934 581.166L224.94 581.997L219.29 588.839L221.751 590.872L221.063 591.704L215.129 586.803L215.817 585.97Z" fill="black"/>
<path d="M199.362 564.719C200.051 564.029 200.769 563.541 201.516 563.257C202.26 562.975 202.981 562.911 203.677 563.065C204.373 563.219 205.005 563.579 205.573 564.146C206.128 564.699 206.485 565.326 206.644 566.025C206.799 566.727 206.745 567.449 206.482 568.19C206.212 568.932 205.749 569.638 205.093 570.309L204.586 570.817C203.91 571.495 203.195 571.976 202.441 572.261C201.688 572.545 200.96 572.611 200.257 572.457C199.548 572.303 198.916 571.949 198.361 571.396C197.796 570.833 197.436 570.2 197.28 569.497C197.118 568.795 197.18 568.068 197.466 567.317C197.749 566.569 198.233 565.852 198.918 565.164L199.362 564.719ZM199.833 566.096C199 566.932 198.528 567.74 198.42 568.52C198.308 569.303 198.554 569.995 199.157 570.597C199.744 571.183 200.431 571.42 201.217 571.31C201.997 571.199 202.788 570.752 203.589 569.968L204.106 569.45C204.913 568.64 205.38 567.834 205.504 567.031C205.622 566.229 205.383 565.53 204.786 564.935C204.186 564.336 203.504 564.09 202.741 564.198C201.974 564.308 201.178 564.767 200.354 565.573L199.833 566.096Z" fill="black"/>
<path d="M167.009 530.889L168.813 533.531L176.14 528.527L176.877 529.606L169.549 534.609L171.349 537.246L170.457 537.855L166.117 531.498L167.009 530.889Z" fill="black"/>
<path d="M162.195 505.496L162.834 506.65L158.808 508.877L161.237 513.268L165.263 511.04L165.898 512.189L157.189 517.007L156.554 515.859L160.298 513.787L157.869 509.397L154.125 511.468L153.486 510.314L162.195 505.496Z" fill="black"/>
<path d="M148.185 486.79L149.911 490.744L153.144 489.333L151.139 484.74L152.123 484.311L154.652 490.106L145.53 494.088L143.028 488.355L144.018 487.923L145.995 492.453L148.927 491.173L147.202 487.22L148.185 486.79Z" fill="black"/>
<path d="M134.892 443.301L138.691 442.435L138.983 443.715L129.278 445.926L128.463 442.346C128.221 441.284 128.303 440.392 128.708 439.668C129.113 438.941 129.761 438.475 130.655 438.272C131.597 438.057 132.39 438.187 133.036 438.661C133.676 439.133 134.121 439.917 134.371 441.014L134.892 443.301ZM133.846 443.539L133.322 441.24C133.166 440.555 132.887 440.067 132.484 439.776C132.076 439.485 131.568 439.409 130.959 439.548C130.382 439.68 129.961 439.967 129.698 440.411C129.434 440.854 129.368 441.395 129.499 442.033L130.04 444.406L133.846 443.539Z" fill="black"/>
<path d="M129.573 416.831L130.133 421.108L133.63 420.65L132.979 415.682L134.044 415.543L134.865 421.812L124.996 423.105L124.184 416.903L125.255 416.763L125.896 421.663L129.068 421.248L128.508 416.971L129.573 416.831Z" fill="black"/>
<path d="M127.652 389.578C128.626 389.543 129.484 389.676 130.225 389.977C130.961 390.278 131.531 390.723 131.936 391.31C132.34 391.897 132.557 392.592 132.586 393.393C132.615 394.177 132.449 394.878 132.088 395.498C131.723 396.118 131.192 396.609 130.493 396.972C129.79 397.33 128.97 397.531 128.032 397.575L127.315 397.601C126.359 397.636 125.508 397.5 124.762 397.194C124.017 396.889 123.44 396.44 123.031 395.848C122.617 395.252 122.395 394.563 122.367 393.779C122.338 392.982 122.506 392.274 122.871 391.654C123.231 391.03 123.772 390.541 124.493 390.186C125.21 389.831 126.053 389.637 127.023 389.601L127.652 389.578ZM127.057 390.906C125.878 390.949 124.982 391.219 124.371 391.716C123.755 392.213 123.463 392.887 123.494 393.738C123.524 394.567 123.865 395.209 124.515 395.664C125.161 396.115 126.044 396.327 127.165 396.3L127.896 396.273C129.039 396.231 129.93 395.959 130.568 395.457C131.202 394.951 131.503 394.276 131.473 393.434C131.442 392.587 131.11 391.942 130.479 391.5C129.842 391.058 128.948 390.851 127.795 390.88L127.057 390.906Z" fill="black"/>
<path d="M128.877 371.361L132.767 371.584L132.691 372.895L122.755 372.324L122.965 368.659C123.028 367.572 123.354 366.737 123.944 366.155C124.535 365.568 125.287 365.301 126.202 365.353C127.166 365.408 127.893 365.754 128.381 366.389C128.866 367.019 129.076 367.896 129.011 369.02L128.877 371.361ZM127.805 371.299L127.94 368.945C127.981 368.244 127.848 367.698 127.541 367.306C127.231 366.914 126.764 366.7 126.14 366.664C125.549 366.63 125.065 366.79 124.689 367.142C124.312 367.495 124.099 367.996 124.048 368.646L123.908 371.076L127.805 371.299Z" fill="black"/>
<path d="M134.275 347.134L134.985 342.471L136.046 342.632L135.137 348.6L125.298 347.101L125.496 345.797L134.275 347.134Z" fill="black"/>
<path d="M136.133 320.78L135.087 324.964L138.509 325.82L139.724 320.958L140.766 321.219L139.232 327.353L129.576 324.94L131.093 318.872L132.141 319.134L130.942 323.928L134.046 324.704L135.092 320.519L136.133 320.78Z" fill="black"/>
<path d="M151.115 277.153C150.755 276.987 150.512 276.736 150.385 276.402C150.26 276.063 150.286 275.704 150.461 275.323C150.635 274.946 150.89 274.693 151.227 274.562C151.559 274.429 151.918 274.452 152.302 274.629L152.532 274.735C152.892 274.901 153.133 275.151 153.256 275.483C153.378 275.816 153.35 276.177 153.17 276.566C152.993 276.951 152.737 277.206 152.402 277.333C152.065 277.454 151.715 277.43 151.351 277.262L151.115 277.153Z" fill="black"/>
</svg>
