<svg id="click_icon" width="24" height="24" viewBox="0 0 24 24" fill="black" xmlns="http://www.w3.org/2000/svg">
<path d="M12 2L12.6247 1.21913L12 0.719375L11.3753 1.21913L12 2ZM11 11C11 11.5523 11.4477 12 12 12C12.5523 12 13 11.5523 13 11L11 11ZM17.6247 5.21913L12.6247 1.21913L11.3753 2.78087L16.3753 6.78087L17.6247 5.21913ZM11.3753 1.21913L6.3753 5.21913L7.62469 6.78087L12.6247 2.78087L11.3753 1.21913ZM11 2L11 11L13 11L13 2L11 2Z" fill="white"/>
<path d="M3.44293 13.3424L4.42933 13.5068L3.44293 13.3424ZM3.25232 20.9391L2.4893 21.5855L3.25232 20.9391ZM20.8356 15.0136L21.822 14.8492L20.8356 15.0136ZM20.7477 20.9391L21.5107 21.5855L20.7477 20.9391ZM19.5707 13.5068L19.8492 15.178L21.822 14.8492L21.5435 13.178L19.5707 13.5068ZM14.9172 21L9.08276 21L9.08276 23L14.9172 23L14.9172 21ZM4.15079 15.178L4.42933 13.5068L2.45654 13.178L2.178 14.8492L4.15079 15.178ZM15.8681 11L16.6115 11L16.6115 9L15.8681 9L15.8681 11ZM7.38851 11L7.93403 11L7.93403 9L7.38851 9L7.38851 11ZM4.42933 13.5068C4.56657 12.6833 4.65609 12.1573 4.77061 11.7726C4.87716 11.4147 4.97236 11.301 5.04788 11.237L3.75513 9.71094C3.27116 10.1209 3.0201 10.6432 2.85375 11.202C2.69537 11.7339 2.58534 12.4052 2.45654 13.178L4.42933 13.5068ZM7.38851 9C6.60502 9 5.92484 8.99818 5.37405 9.06695C4.79555 9.13917 4.2391 9.30096 3.75513 9.71094L5.04788 11.237C5.1234 11.173 5.25128 11.0978 5.62183 11.0515C6.02008 11.0018 6.55366 11 7.38851 11L7.38851 9ZM9.08276 21C7.40829 21 6.25971 20.9976 5.41214 20.8773C4.59225 20.7609 4.23891 20.5567 4.01534 20.2927L2.4893 21.5855C3.16442 22.3825 4.08239 22.7086 5.13109 22.8575C6.15211 23.0024 7.46941 23 9.08276 23L9.08276 21ZM2.178 14.8492C1.91277 16.4406 1.69385 17.7396 1.66895 18.7705C1.64336 19.8294 1.81418 20.7885 2.4893 21.5855L4.01534 20.2927C3.79177 20.0288 3.64836 19.6467 3.66836 18.8189C3.68904 17.963 3.87551 16.8297 4.15079 15.178L2.178 14.8492ZM19.8492 15.178C20.1245 16.8297 20.311 17.963 20.3316 18.8189C20.3516 19.6467 20.2082 20.0288 19.9847 20.2927L21.5107 21.5855C22.1858 20.7885 22.3566 19.8294 22.3311 18.7705C22.3061 17.7396 22.0872 16.4406 21.822 14.8492L19.8492 15.178ZM14.9172 23C16.5306 23 17.8479 23.0024 18.8689 22.8575C19.9176 22.7086 20.8356 22.3825 21.5107 21.5855L19.9847 20.2927C19.7611 20.5567 19.4077 20.7609 18.5879 20.8773C17.7403 20.9976 16.5917 21 14.9172 21L14.9172 23ZM21.5435 13.178C21.4147 12.4052 21.3046 11.7339 21.1462 11.202C20.9799 10.6432 20.7288 10.1209 20.2449 9.71094L18.9521 11.237C19.0276 11.301 19.1228 11.4147 19.2294 11.7726C19.3439 12.1573 19.4334 12.6833 19.5707 13.5068L21.5435 13.178ZM16.6115 11C17.4463 11 17.9799 11.0018 18.3782 11.0515C18.7487 11.0978 18.8766 11.173 18.9521 11.237L20.2449 9.71094C19.7609 9.30096 19.2044 9.13917 18.626 9.06695C18.0752 8.99818 17.395 9 16.6115 9L16.6115 11Z" fill="white"/>
</svg>
