<svg width="202" height="257" viewBox="0 0 202 257" fill="none" xmlns="http://www.w3.org/2000/svg">
<g filter="url(#filter0_b)">
<path d="M0 12C0 5.37258 5.37258 0 12 0H190C196.627 0 202 5.37258 202 12V245C202 251.627 196.627 257 190 257H12C5.37258 257 0 251.627 0 245V12Z" fill="white" fill-opacity="0.19"/>
<g opacity="0.2">
<rect x="140.312" y="158.312" width="80.625" height="80.625" rx="40.3125" transform="rotate(-180 140.312 158.312)" fill="url(#paint0_linear)"/>
</g>
</g>
<rect opacity="0.2" x="50" y="185" width="101" height="9" rx="4.5" fill="#B3B3B4"/>
<path d="M54.9635 176.438V174.646H55.9015C56.6295 174.646 56.9375 174.982 56.9375 175.549C56.9375 176.095 56.6295 176.438 55.9015 176.438H54.9635ZM57.5885 175.549C57.5885 174.751 57.0495 174.121 55.9015 174.121H54.3265V179H54.9635V176.963H55.9015C57.1125 176.963 57.5885 176.291 57.5885 175.549ZM65.9262 179H66.5982L64.8412 174.149H64.1062L62.3422 179H63.0142L63.4062 177.915H65.5342L65.9262 179ZM65.3522 177.397H63.5882L64.4702 174.933L65.3522 177.397ZM74.248 175.556C74.248 176.102 73.933 176.494 73.212 176.494H72.274V174.646H73.212C73.94 174.646 74.248 175.003 74.248 175.556ZM71.637 174.121V179H72.274V177.005H73.044L74.206 179H74.969L73.744 176.956C74.563 176.774 74.906 176.179 74.906 175.556C74.906 174.758 74.36 174.121 73.212 174.121H71.637ZM79.8648 174.639H81.2018V179H81.8388V174.639H83.1688V174.121H79.8648V174.639ZM94.9961 176.438V174.646H95.9341C96.6621 174.646 96.9701 174.982 96.9701 175.549C96.9701 176.095 96.6621 176.438 95.9341 176.438H94.9961ZM97.6211 175.549C97.6211 174.751 97.0821 174.121 95.9341 174.121H94.3591V179H94.9961V176.963H95.9341C97.1451 176.963 97.6211 176.291 97.6211 175.549ZM105.294 175.556C105.294 176.102 104.979 176.494 104.258 176.494H103.32V174.646H104.258C104.986 174.646 105.294 175.003 105.294 175.556ZM102.683 174.121V179H103.32V177.005H104.09L105.252 179H106.015L104.79 176.956C105.609 176.774 105.952 176.179 105.952 175.556C105.952 174.758 105.406 174.121 104.258 174.121H102.683ZM113.837 174.114H111.212V179H113.837V178.475H111.849V176.795H113.627V176.27H111.849V174.639H113.837V174.114ZM120.897 178.328L119.364 174.121H118.685L120.526 179H121.261L123.102 174.121H122.43L120.897 178.328ZM128.071 179H128.708V174.121H128.071V179ZM136.689 174.114H134.064V179H136.689V178.475H134.701V176.795H136.479V176.27H134.701V174.639H136.689V174.114ZM142.909 179.007L143.616 179L144.792 175.073L145.926 179H146.64L148.054 174.121H147.368L146.297 178.244L145.177 174.121H144.463L143.287 178.258L142.223 174.121H141.544L142.909 179.007Z" fill="white"/>
<defs>
<filter id="filter0_b" x="-10" y="-10" width="222" height="277" filterUnits="userSpaceOnUse" color-interpolation-filters="sRGB">
<feFlood flood-opacity="0" result="BackgroundImageFix"/>
<feGaussianBlur in="BackgroundImage" stdDeviation="5"/>
<feComposite in2="SourceAlpha" operator="in" result="effect1_backgroundBlur"/>
<feBlend mode="normal" in="SourceGraphic" in2="effect1_backgroundBlur" result="shape"/>
</filter>
<linearGradient id="paint0_linear" x1="206.828" y1="228.859" x2="156.438" y2="167.383" gradientUnits="userSpaceOnUse">
<stop stop-color="#292D32"/>
<stop offset="1" stop-color="#737373"/>
</linearGradient>
</defs>
</svg>
