<svg width="65" height="65" viewBox="0 0 65 65" fill="none" xmlns="http://www.w3.org/2000/svg">
<rect x="65" y="65" width="65" height="65" rx="17" transform="rotate(-180 65 65)" fill="url(#paint0_linear)"/>
<rect x="62.9521" y="62.7402" width="60.9048" height="60.9048" rx="16.5" transform="rotate(-180 62.9521 62.7402)" fill="url(#paint1_linear)" stroke="#EAEAEA"/>
<path fill-rule="evenodd" clip-rule="evenodd" d="M24 29.5L26.2302 27.1459L31.423 32.6272L31.423 21.6646C31.423 20.7453 32.1291 20 33 20C33.8709 20 34.577 20.7453 34.577 21.6646L34.577 32.6272L39.7698 27.1459L42 29.5L33 39L24 29.5Z" fill="black"/>
<path fill-rule="evenodd" clip-rule="evenodd" d="M23.25 40V41.5C23.25 42.3284 23.9775 43 24.875 43L41.125 43C42.0225 43 42.75 42.3284 42.75 41.5V40H46V41.5C46 43.9853 43.8174 46 41.125 46L24.875 46C22.1826 46 20 43.9853 20 41.5V40H23.25Z" fill="black"/>
<defs>
<linearGradient id="paint0_linear" x1="118.92" y1="122.614" x2="80.7576" y2="78" gradientUnits="userSpaceOnUse">
<stop stop-color="white"/>
<stop offset="1" stop-color="white"/>
</linearGradient>
<linearGradient id="paint1_linear" x1="114.524" y1="117.407" x2="75.8331" y2="70.2045" gradientUnits="userSpaceOnUse">
<stop stop-color="#A7A7A7" stop-opacity="0"/>
<stop offset="1" stop-color="white"/>
</linearGradient>
</defs>
</svg>
