<svg width="1058" height="366" viewBox="0 0 1058 366" fill="none" xmlns="http://www.w3.org/2000/svg">
<path fill-rule="evenodd" clip-rule="evenodd" d="M481.299 264.545C491.194 261.471 501.034 258.415 510.818 255.456C550.416 243.482 604.314 238.916 663.058 238.865C721.756 238.815 785.099 243.27 843.492 249.239C901.879 255.207 955.281 262.685 994.089 268.671C1013.49 271.664 1029.24 274.284 1040.14 276.155C1045.59 277.09 1049.83 277.839 1052.7 278.353C1054.14 278.61 1055.23 278.808 1055.97 278.943C1056.33 279.01 1056.61 279.061 1056.8 279.095L1057.06 279.143L1057.07 279.145C1057.07 279.146 1057.08 279.146 1057.53 276.688C1057.99 274.23 1057.99 274.23 1057.98 274.229L1057.97 274.227L1057.7 274.178C1057.51 274.143 1057.23 274.091 1056.86 274.024C1056.12 273.889 1055.02 273.689 1053.58 273.431C1050.7 272.915 1046.45 272.164 1040.99 271.227C1030.06 269.352 1014.28 266.727 994.851 263.73C955.986 257.735 902.495 250.244 844 244.265C785.512 238.286 721.984 233.815 663.054 233.865C604.17 233.916 549.683 238.48 509.371 250.67C499.533 253.645 489.663 256.709 479.761 259.783C408.986 281.755 336.576 304.234 262.666 298.28C178.722 291.518 92.5205 247.989 5.04421 123.761L0.956055 126.64C89.0813 251.79 176.517 296.357 262.264 303.264C337.212 309.301 410.624 286.498 481.299 264.545Z" fill="url(#paint0_radial)"/>
<g filter="url(#filter0_d)">
<path d="M643.549 225.471C643.549 223.946 642.345 222.742 640.429 222.742C638.489 222.742 637.285 223.946 637.285 225.471C637.285 226.971 638.489 228.151 640.429 228.151C642.345 228.151 643.549 226.971 643.549 225.471Z" fill="white"/>
<path d="M656.796 210.547V219.447L651.024 210.547H645.571V227.954H651.024V219.201L656.796 227.954H662.249V210.547H656.796Z" fill="white"/>
<path d="M664.712 227.954H670.165V221.389H675.078V217.284H670.165V214.874H676.993V210.547H664.712V227.954Z" fill="white"/>
<path d="M677.858 214.874H682.427V227.954H687.879V214.874H692.497V210.547H677.858V214.874Z" fill="white"/>
</g>
<g filter="url(#filter1_d)">
<path d="M429.112 226.762C416.738 230.338 402.501 234.019 393.061 235.906C397.679 231.933 403.486 227.347 406.643 224.717C416.455 216.857 417.303 216.213 416.511 212.846C415.744 209.584 414.438 209.225 404.516 206.227C400.833 205.206 394.384 203.28 390.002 201.645C395.753 197.294 406.598 190.524 411.488 187.708C413.376 189.597 416.34 193.23 418.834 196.753C420.481 199.031 423.724 199.601 426.002 197.955C428.28 196.308 428.77 193.195 427.099 190.812C416.194 175.608 413.037 176.35 410.512 176.944C407.986 177.538 393.538 186.932 393.328 186.982C377.635 197.224 376.205 200.114 376.836 203.742C377.609 208.446 382.486 210.297 401.364 215.964C401.098 216.248 400.727 216.558 400.33 216.762C378.849 234.029 375.042 238.144 376.18 242.985C376.527 244.458 377.505 245.783 378.91 246.563C380.209 247.368 382.914 248.953 403.644 244.078C410.8 242.395 420.011 240.007 431.964 236.53C434.65 235.676 436.211 232.866 435.462 230.155C434.713 227.444 431.798 225.908 429.112 226.762Z" fill="white"/>
<path d="M479.903 148.411C477.074 148.188 474.66 150.2 474.307 152.948L470.594 191.466C467.456 185.208 463.582 179.123 459.491 177.309C457.64 176.523 455.623 176.442 453.803 177.203C445.681 180.445 438.006 222.894 437.85 232.148C437.732 234.952 437.589 241.426 442.411 243.513C443.296 243.971 444.781 244.621 447.096 244.077C451.2 243.112 457.799 238.117 467.804 220.218L466.608 232.603C466.255 235.352 468.291 237.871 471.12 238.094C471.695 238.181 472.246 238.163 472.773 238.039C474.877 237.544 476.474 235.836 476.716 233.558L484.439 154.008C484.768 151.154 482.626 148.659 479.903 148.411ZM447.927 231.555C448.412 221.335 453.744 198.205 457.465 189.001C459.545 192.177 462.429 197.828 464.836 203.814C459.059 215.611 452.218 226.659 447.927 231.555Z" fill="white"/>
<path d="M492.219 190.712C489.391 190.489 487.026 192.711 486.908 195.515C486.839 196.641 485.728 223.554 485.579 228.587C485.485 231.496 487.683 233.755 490.592 233.849C490.932 233.88 491.353 233.781 491.774 233.682C493.984 233.162 495.637 231.219 495.748 228.86C495.792 223.853 497.071 196.234 497.127 195.999C497.245 193.195 495.023 190.83 492.219 190.712ZM494.426 164.208C491.598 163.984 489.078 166.02 488.83 168.744L487.758 179.768C487.429 182.621 489.466 185.141 492.294 185.364C492.87 185.451 493.421 185.432 493.947 185.309C496.052 184.814 497.649 183.106 497.89 180.828L498.963 169.804C499.186 166.975 497.175 164.561 494.426 164.208Z" fill="white"/>
<path d="M542.563 170.434C536.157 171.052 530.084 172.147 524.773 173.174L524.985 165.572C525.103 162.769 522.881 160.404 520.077 160.286C517.192 160.298 514.933 162.495 514.815 165.299L514.566 175.574C508.778 176.935 505.064 178.141 504.749 178.216C502.087 179.175 500.632 181.96 501.486 184.646C502.339 187.333 505.23 188.763 507.916 187.909C507.916 187.909 510.287 187.13 514.156 186.109L513.155 221.991C513.142 224.77 515.258 227.16 518.143 227.148C518.613 227.259 519.034 227.16 519.455 227.061C521.56 226.566 523.213 224.623 523.324 222.265L524.469 183.684C530.07 182.478 536.669 181.259 543.602 180.517C543.812 180.468 544.023 180.418 544.233 180.369C546.759 179.775 548.442 177.491 548.164 174.891C547.837 172.081 545.373 170.106 542.563 170.434Z" fill="white"/>
<path d="M622.804 111.032C596.553 115.095 530.058 139.282 527.186 140.291C524.63 141.225 523.199 144.116 524.158 146.777C525.068 149.229 527.618 150.628 530.144 150.034C530.354 149.985 530.54 149.83 530.645 149.805C530.961 149.731 541.502 145.919 555.783 141.007L549.696 202.959C549.473 205.788 551.484 208.203 554.233 208.556C554.808 208.642 555.334 208.519 555.861 208.395C557.965 207.9 559.562 206.192 559.829 204.019L566.374 137.406C586.975 130.562 611.308 123.064 624.288 121.122C627.049 120.584 628.999 118.015 628.591 115.335C628.158 112.549 625.484 110.624 622.804 111.032Z" fill="white"/>
<path d="M590.342 191.625C590.893 191.606 591.468 191.693 591.994 191.569C592.1 191.545 592.205 191.52 592.31 191.495C594.415 191 596.111 189.713 597.262 187.999C606.357 173.311 608.298 145.204 602.443 140.14C601.305 139.075 599.423 138.629 597.925 138.87C596.087 139.08 593.431 139.594 582.331 157.085L582.647 151.347C582.765 148.543 580.648 146.153 577.95 146.01C575.121 145.787 572.626 147.929 572.508 150.733L571.025 176.067C570.753 176.798 570.716 177.584 570.889 178.32L568.519 216.412C568.401 219.216 570.518 221.606 573.322 221.724C573.792 221.835 574.318 221.711 574.739 221.612C576.949 221.093 578.522 219.279 578.658 217.026L579.967 196.619L625.78 246.94C626.975 247.77 628.491 248.08 629.965 247.733C631.122 247.461 632.075 246.793 632.849 245.833C634.533 243.55 634.001 240.343 631.717 238.659L590.342 191.625ZM595.515 155.539C595.279 163.035 593.742 173.502 589.278 181.436C587.632 181.046 584.506 179.56 581.622 177.684C586.321 169.805 591.578 161.462 595.515 155.539Z" fill="white"/>
<path d="M646.791 140.372C643.962 140.149 641.548 142.16 641.22 145.014L640.655 151.587C637.493 145.223 633.619 139.138 629.528 137.324C627.677 136.538 625.66 136.457 623.84 137.218C615.718 140.461 608.043 182.909 607.887 192.163C607.769 194.967 607.626 201.441 612.448 203.528C613.333 203.986 614.818 204.636 617.133 204.092C621.237 203.127 627.836 198.133 637.841 180.233L636.645 192.619C636.292 195.367 638.328 197.886 641.157 198.11C641.732 198.196 642.283 198.178 642.809 198.054C644.914 197.559 646.511 195.851 646.753 193.573L651.327 145.968C651.681 143.22 649.644 140.7 646.791 140.372ZM617.964 191.57C618.449 181.351 623.781 158.22 627.502 149.016C629.582 152.192 632.465 157.844 634.872 163.83C629.096 175.627 622.255 186.675 617.964 191.57Z" fill="white"/>
<path d="M689.421 124.684C686.92 123.495 683.862 124.658 682.698 127.264L672.792 149.36L663.156 133.414C661.696 130.981 658.533 130.282 656.205 131.717C653.772 133.178 652.943 136.26 654.403 138.693L667.782 160.644L656.142 186.701C654.953 189.202 656.117 192.26 658.722 193.424C659.713 193.857 660.839 193.925 661.891 193.678C663.365 193.332 664.689 192.354 665.34 190.868L674.163 171.248L683.414 186.507C684.541 188.463 686.837 189.256 688.942 188.761C689.363 188.662 689.889 188.538 690.365 188.204C692.798 186.743 693.523 183.686 692.062 181.253L679.172 159.964L692.001 131.406C693.165 128.801 692.026 125.848 689.421 124.684Z" fill="white"/>
</g>
<rect x="438.625" y="65" width="200" height="200" rx="100" fill="white" fill-opacity="0.1"/>
<defs>
<filter id="filter0_d" x="523.285" y="100.547" width="283.212" height="245.604" filterUnits="userSpaceOnUse" color-interpolation-filters="sRGB">
<feFlood flood-opacity="0" result="BackgroundImageFix"/>
<feColorMatrix in="SourceAlpha" type="matrix" values="0 0 0 0 0 0 0 0 0 0 0 0 0 0 0 0 0 0 127 0" result="hardAlpha"/>
<feOffset dy="4"/>
<feGaussianBlur stdDeviation="57"/>
<feComposite in2="hardAlpha" operator="out"/>
<feColorMatrix type="matrix" values="0 0 0 0 1 0 0 0 0 1 0 0 0 0 1 0 0 0 1 0"/>
<feBlend mode="normal" in2="BackgroundImageFix" result="effect1_dropShadow"/>
<feBlend mode="normal" in="SourceGraphic" in2="effect1_dropShadow" result="shape"/>
</filter>
<filter id="filter1_d" x="262" y="0.977539" width="544.813" height="364.896" filterUnits="userSpaceOnUse" color-interpolation-filters="sRGB">
<feFlood flood-opacity="0" result="BackgroundImageFix"/>
<feColorMatrix in="SourceAlpha" type="matrix" values="0 0 0 0 0 0 0 0 0 0 0 0 0 0 0 0 0 0 127 0" result="hardAlpha"/>
<feOffset dy="4"/>
<feGaussianBlur stdDeviation="57"/>
<feComposite in2="hardAlpha" operator="out"/>
<feColorMatrix type="matrix" values="0 0 0 0 1 0 0 0 0 1 0 0 0 0 1 0 0 0 1 0"/>
<feBlend mode="normal" in2="BackgroundImageFix" result="effect1_dropShadow"/>
<feBlend mode="normal" in="SourceGraphic" in2="effect1_dropShadow" result="shape"/>
</filter>
<radialGradient id="paint0_radial" cx="0" cy="0" r="1" gradientUnits="userSpaceOnUse" gradientTransform="translate(530.266 200.944) rotate(54.8483) scale(365.5 387.5)">
<stop stop-color="white"/>
<stop offset="1" stop-color="white" stop-opacity="0"/>
</radialGradient>
</defs>
</svg>
