<svg width="18" height="22" viewBox="0 0 18 22" fill="none" xmlns="http://www.w3.org/2000/svg">
<path d="M17.6087 13.3042C15.1778 6.08235 5.65258 12.3907 4.15001 7.92679C3.50878 6.02182 4.65258 4.62389 6.54827 4.0491C8.61454 3.41688 10.1918 4.24708 10.7553 5.54512L14.3378 4.33923C12.9146 1.05148 9.57203 -0.0391615 5.79052 1.23372C1.75311 2.59274 -0.27748 5.68195 0.890126 9.15071C3.34019 16.4294 12.7886 9.79875 14.3964 14.5754C14.9611 16.2529 14.0932 17.9062 11.8186 18.6718C9.5724 19.4279 7.99486 18.5028 7.30717 16.93L3.83841 18.0976C5.01559 21.5948 8.78522 22.7317 12.7373 21.4014C17.1444 19.9179 18.6041 16.2612 17.6087 13.3042Z" fill="black"/>
</svg>
