<svg width="698" height="700" viewBox="0 0 698 700" fill="none" xmlns="http://www.w3.org/2000/svg">
<path d="M104.224 296.144L100.412 295.32L100.812 293.472C101.129 292.006 102.012 291.614 103.155 291.861C104.299 292.109 104.941 292.831 104.624 294.297L104.224 296.144ZM104.582 285.264C100.389 284.357 96.8799 286.391 95.7511 291.61L93.7851 300.7L114.545 305.19L115.953 298.681L109.356 297.254L109.914 294.673C111.042 289.454 108.423 286.095 104.582 285.264Z" fill="black"/>
<path d="M112.978 260.312C114.164 260.737 114.45 261.541 114.025 262.727L113.135 265.212L109.746 263.999L110.636 261.513C111.061 260.327 111.961 259.948 112.978 260.312ZM102.247 268.387L122.243 275.549L124.489 269.279L117.315 266.709L117.325 266.681L125.844 265.494L128.312 258.603L119.101 260.211C119.19 257.025 117.485 254.757 114.858 253.816C111.187 252.501 107.385 254.04 105.585 259.067L102.247 268.387Z" fill="black"/>
<path d="M121.387 224.356L114.914 236.95L133.804 246.66L140.278 234.066L135.555 231.639L132.126 238.309L129.458 236.938L132.476 231.068L128.02 228.777L125.002 234.647L122.681 233.454L126.11 226.784L121.387 224.356Z" fill="black"/>
<path d="M152.398 203.128C147.022 199.404 141.772 207.775 139.577 206.255C138.986 205.845 138.929 205.294 139.236 204.851C139.646 204.259 140.36 203.913 141.454 204.599L145.536 198.704C141.808 196.341 137.907 197.654 134.987 201.871C132.407 205.595 132.183 209.819 135.685 212.244C141.585 216.476 146.427 207.641 148.811 209.256C149.428 209.683 149.316 210.372 148.94 210.914C148.564 211.457 147.864 211.994 146.513 211.204L142.483 217.025C146.575 219.494 150.594 217.642 153.361 213.647C156.281 209.43 155.605 205.348 152.398 203.128Z" fill="black"/>
<path d="M161.487 169.813L151.974 180.302L167.708 194.571L177.22 184.081L173.287 180.514L168.249 186.07L166.026 184.055L170.46 179.166L166.749 175.8L162.315 180.689L160.382 178.936L165.42 173.38L161.487 169.813Z" fill="black"/>
<path d="M183.623 149.388L190.647 157.671L178.246 153.948L173.166 158.255L186.903 174.455L191.983 170.148L185.076 162.002L197.36 165.588L202.44 161.281L188.703 145.081L183.623 149.388Z" fill="black"/>
<path d="M203.521 140.757L208.212 137.735L216.856 151.151L222.455 147.543L213.81 134.127L218.551 131.072L215.691 126.634L200.661 136.318L203.521 140.757Z" fill="black"/>
<path d="M244.445 111.882L231.643 117.932L240.718 137.136L253.52 131.085L251.252 126.284L244.471 129.489L243.189 126.777L249.156 123.957L247.015 119.427L241.048 122.247L239.933 119.887L246.714 116.683L244.445 111.882Z" fill="black"/>
<path d="M268.601 102.803L260.175 105.508L266.666 125.732L275.093 123.027C281.548 120.955 284.192 115.254 282.34 109.484C280.47 103.657 275.057 100.731 268.601 102.803ZM271.192 118.04L268.295 109.014L269.809 108.528C272.608 107.63 274.969 108.605 275.913 111.547C276.858 114.489 275.505 116.656 272.706 117.554L271.192 118.04Z" fill="black"/>
<path d="M341.086 104.661C341.137 105.71 340.588 106.157 339.389 106.215L336.363 106.363L336.217 103.367L339.243 103.219C340.442 103.16 341.036 103.642 341.086 104.661ZM340.264 97.0718C340.314 98.0906 339.767 98.5679 338.568 98.6264L335.991 98.7522L335.845 95.7558L338.422 95.63C339.62 95.5714 340.213 96.0231 340.264 97.0718ZM347.936 105.317C347.82 102.95 346.281 100.953 343.643 100.451C345.714 99.8092 347.098 97.9996 346.973 95.4526C346.793 91.767 343.977 90.0724 339.752 90.2787L328.935 90.8069L329.971 112.022L341.088 111.479C345.703 111.253 348.117 109.033 347.936 105.317Z" fill="black"/>
<path d="M367.039 105.639L366.51 112.067L373.148 112.613L373.677 106.185L382.484 92.0696L375.009 91.4545L371.013 98.6811L368.252 90.8985L360.658 90.2736L367.039 105.639Z" fill="black"/>
<path d="M431.077 119.096L431.88 103.864L425.214 101.477L424.775 123.881L432.881 126.784L446.764 109.195L440.099 106.808L431.077 119.096Z" fill="black"/>
<path d="M455.963 136.992L461.887 140.037L471.597 121.146L465.673 118.102L455.963 136.992Z" fill="black"/>
<path d="M487.868 148.293L492.585 133.788L486.764 129.757L480.542 151.284L487.62 156.186L505.582 142.79L499.762 138.759L487.868 148.293Z" fill="black"/>
<path d="M511.839 176.16L517.039 180.876L525.574 159.943L519.885 154.784L499.861 165.298L505.038 169.994L507.973 168.321L513.217 173.077L511.839 176.16ZM515.383 168.278L512.538 165.698L517.931 162.61L515.383 168.278Z" fill="black"/>
<path d="M551.108 224.316L554.91 230.217L568.572 212.206L564.412 205.75L542.349 210.723L546.135 216.599L549.402 215.743L553.237 221.694L551.108 224.316ZM556.571 217.619L554.491 214.391L560.499 212.804L556.571 217.619Z" fill="black"/>
<path d="M568.934 233.742C563.211 236.447 560.875 241.964 563.656 247.85C566.053 252.922 570.719 254.931 575.621 253.577L572.621 247.23C571.077 247.263 569.806 246.47 569.165 245.113C568.204 243.079 569.269 241.05 571.818 239.845C574.368 238.64 576.612 239.105 577.574 241.14C578.215 242.496 578.021 243.981 577.015 245.153L580.015 251.5C584.172 248.573 585.582 243.692 583.185 238.62C580.404 232.734 574.657 231.037 568.934 233.742Z" fill="black"/>
<path d="M574.692 275.126L576.727 281.467L596.951 274.976L594.915 268.635L574.692 275.126Z" fill="black"/>
<path d="M603.489 302.262L601.908 293.554L581.01 297.35L582.591 306.058C583.803 312.729 589.11 316.094 595.073 315.011C601.094 313.918 604.701 308.933 603.489 302.262ZM588.044 302.842L597.372 301.147L597.656 302.712C598.181 305.604 596.906 307.818 593.866 308.37C590.826 308.922 588.854 307.299 588.328 304.406L588.044 302.842Z" fill="black"/>
<path d="M590.585 371.035C590.351 373.875 592.354 376.237 595.165 376.468C598.005 376.702 600.397 374.702 600.631 371.861C600.862 369.051 598.832 366.656 595.991 366.422C593.181 366.191 590.816 368.224 590.585 371.035Z" fill="black"/>
<path d="M575.664 421.148L572.872 428.943L583.396 435.325L571.213 433.575L568.421 441.37L586.779 453.107L589.196 446.357L577.247 440.038L590.815 441.838L593.263 435.003L581.637 427.78L594.881 430.484L597.298 423.734L575.664 421.148Z" fill="black"/>
<path d="M560.97 456.755L557.925 462.678L576.816 472.389L579.86 466.465L560.97 456.755Z" fill="black"/>
<path d="M562.442 486.603L559.265 491.191L546.144 482.104L542.352 487.579L555.473 496.666L552.262 501.303L556.603 504.309L566.783 489.609L562.442 486.603Z" fill="black"/>
<path d="M522.743 511.592L518.269 516.526L534.003 530.794L538.477 525.861L532.81 520.722L537.062 516.033L542.729 521.172L547.203 516.238L531.47 501.97L526.996 506.903L533.129 512.465L528.877 517.154L522.743 511.592Z" fill="black"/>
<path d="M481.286 563.465C480.603 562.406 480.866 561.595 481.925 560.912L484.144 559.482L486.094 562.508L483.875 563.938C482.815 564.621 481.871 564.373 481.286 563.465ZM494.715 563.591L483.21 545.737L477.612 549.344L481.739 555.75L481.714 555.766L474.232 551.522L468.079 555.487L476.366 559.818C474.356 562.292 474.328 565.129 475.839 567.474C477.952 570.753 481.904 571.846 486.393 568.954L494.715 563.591Z" fill="black"/>
<path d="M452.725 586.872L465.527 580.822L456.452 561.618L443.65 567.669L445.918 572.469L452.699 569.265L453.981 571.977L448.014 574.797L450.155 579.327L456.122 576.507L457.237 578.866L450.456 582.071L452.725 586.872Z" fill="black"/>
<path d="M424.457 597.27L421.138 586.93L431.17 595.116L437.511 593.08L431.02 572.857L424.679 574.892L427.943 585.061L417.966 577.047L411.625 579.082L418.116 599.306L424.457 597.27Z" fill="black"/>
<path d="M387.708 605.733L401.64 603.202L397.844 582.304L383.912 584.835L384.861 590.06L392.241 588.719L392.777 591.671L386.283 592.85L387.178 597.78L393.672 596.6L394.139 599.168L386.759 600.509L387.708 605.733Z" fill="black"/>
<path d="M359.141 608.601C365.793 608.277 369.65 603.613 369.341 597.29C369.033 590.968 364.71 586.704 358.028 587.03C352.544 587.298 349.704 590.65 348.36 593.269L348.685 599.921L359.502 599.393L359.273 594.688L353.969 594.947C354.893 593.581 356.096 592.981 357.594 592.908C360.86 592.749 362.439 594.324 362.6 597.62C362.737 600.436 361.388 602.334 358.811 602.46C357.433 602.528 356.449 602.065 355.9 601.281L348.888 601.623C349.739 606.117 353.508 608.877 359.141 608.601Z" fill="black"/>
<path d="M324.515 586.181L317.518 585.606L323.49 607.409L331.145 608.039L340.63 587.508L333.664 586.934L332.354 590.047L325.298 589.467L324.515 586.181ZM326.502 594.593L330.329 594.908L327.93 600.64L326.502 594.593Z" fill="black"/>
<path d="M294.569 602.464L303.219 604.334L307.709 583.574L299.059 581.704C292.432 580.27 287.291 583.885 286.01 589.808C284.717 595.79 287.942 601.03 294.569 602.464ZM299.943 587.972L297.939 597.238L296.385 596.902C293.512 596.28 291.955 594.256 292.608 591.235C293.261 588.215 295.516 587.015 298.389 587.636L299.943 587.972Z" fill="black"/>
<path d="M254.289 590.95L267.62 595.724L274.781 575.727L261.45 570.953L259.66 575.952L266.721 578.481L265.709 581.305L259.496 579.08L257.807 583.797L264.02 586.022L263.14 588.479L256.079 585.95L254.289 590.95Z" fill="black"/>
<path d="M202.336 545.563C198.612 550.94 206.983 556.189 205.463 558.384C205.053 558.976 204.502 559.033 204.059 558.726C203.467 558.316 203.121 557.602 203.807 556.508L197.912 552.426C195.549 556.154 196.862 560.055 201.079 562.975C204.803 565.555 209.027 565.779 211.452 562.277C215.684 556.377 206.849 551.535 208.464 549.15C208.891 548.534 209.58 548.646 210.122 549.022C210.665 549.397 211.202 550.098 210.412 551.448L216.233 555.479C218.702 551.387 216.85 547.368 212.855 544.601C208.638 541.681 204.556 542.357 202.336 545.563Z" fill="black"/>
<path d="M180.537 534.445L177.917 537.334L176.517 536.064C175.406 535.057 175.507 534.096 176.293 533.229C177.079 532.363 178.025 532.168 179.137 533.175L180.537 534.445ZM171.293 528.695C168.411 531.873 168.418 535.929 172.374 539.516L179.263 545.764L193.531 530.03L188.598 525.556L184.063 530.556L182.108 528.783C178.152 525.195 173.933 525.784 171.293 528.695Z" fill="black"/>
<path d="M168.104 504.503L163.797 499.423L147.597 513.16L151.904 518.24L168.104 504.503Z" fill="black"/>
<path d="M134.497 482.078C135.556 481.395 136.367 481.658 137.05 482.717L138.48 484.936L135.454 486.886L134.024 484.667C133.341 483.608 133.589 482.663 134.497 482.078ZM134.37 495.507L152.225 484.002L148.618 478.404L142.212 482.531L142.196 482.506L146.44 475.024L142.475 468.871L138.144 477.158C135.67 475.148 132.833 475.12 130.488 476.631C127.209 478.744 126.116 482.696 129.008 487.185L134.37 495.507Z" fill="black"/>
<path d="M134.104 452.505L131.259 446.484L112.055 455.56L114.901 461.581L134.104 452.505Z" fill="black"/>
<path d="M109.528 435.503L107.823 430.19L123.019 425.312L120.984 418.971L105.787 423.849L104.063 418.479L99.0361 420.092L104.501 437.117L109.528 435.503Z" fill="black"/>
<path d="M105.829 359.492C105.69 356.645 103.395 354.565 100.579 354.702C97.7321 354.841 95.6216 357.137 95.7606 359.984C95.8982 362.8 98.2238 364.909 101.07 364.77C103.887 364.633 105.966 362.309 105.829 359.492Z" fill="black"/>
</svg>
